<svg width="24" height="24" viewBox="0 0 24 24" fill="none" xmlns="http://www.w3.org/2000/svg">
<mask id="mask0_2351_6476" style="mask-type:alpha" maskUnits="userSpaceOnUse" x="0" y="0" width="24" height="24">
<rect width="24" height="24" fill="#D9D9D9"/>
</mask>
<g mask="url(#mask0_2351_6476)">
<path d="M9.18449 11.9998L16.7172 19.5325C16.9159 19.7312 17.0127 19.9651 17.0077 20.2343C17.0026 20.5036 16.9007 20.7376 16.702 20.9363C16.5032 21.1349 16.2692 21.2343 16 21.2343C15.7308 21.2343 15.4968 21.1349 15.298 20.9363L7.62699 13.2805C7.44615 13.0997 7.31216 12.8971 7.22499 12.6728C7.13782 12.4484 7.09424 12.2241 7.09424 11.9998C7.09424 11.7754 7.13782 11.5511 7.22499 11.3268C7.31216 11.1024 7.44615 10.8999 7.62699 10.719L15.298 3.04777C15.4968 2.8491 15.7334 2.75235 16.0077 2.75752C16.2821 2.76269 16.5186 2.8646 16.7172 3.06327C16.9159 3.26194 17.0152 3.49594 17.0152 3.76527C17.0152 4.03444 16.9159 4.26835 16.7172 4.46702L9.18449 11.9998Z" fill="#C3C3C3"/>
</g>
</svg>
