<svg width="24" height="24" viewBox="0 0 24 24" fill="none" xmlns="http://www.w3.org/2000/svg">
<mask id="mask0_2264_4193" style="mask-type:alpha" maskUnits="userSpaceOnUse" x="0" y="0" width="24" height="24">
<rect width="24" height="24" fill="#D9D9D9"/>
</mask>
<g mask="url(#mask0_2264_4193)">
<path d="M14.8766 8.62301C15.2829 9.02951 15.597 9.52343 15.8188 10.1048C16.0407 10.6863 16.1246 11.2699 16.0706 11.8558C16.0706 12.0481 16.0014 12.2109 15.8631 12.3443C15.7246 12.4776 15.5592 12.5443 15.3668 12.5443C15.1745 12.5443 15.0117 12.4776 14.8783 12.3443C14.745 12.2109 14.6783 12.0481 14.6783 11.8558C14.7425 11.4161 14.7063 10.9994 14.5698 10.6058C14.4333 10.2123 14.2234 9.87385 13.9401 9.59051C13.6568 9.30718 13.3151 9.0921 12.9151 8.94526C12.5151 8.79843 12.0933 8.76026 11.6496 8.83076C11.4573 8.83726 11.2913 8.77285 11.1516 8.63751C11.0118 8.50235 10.9387 8.33859 10.9323 8.14626C10.9258 7.95393 10.9877 7.78785 11.1178 7.64801C11.248 7.50835 11.4093 7.43534 11.6016 7.42901C12.1836 7.36234 12.7685 7.43826 13.3563 7.65676C13.9442 7.87543 14.4509 8.19751 14.8766 8.62301ZM11.9996 6.00001C11.6444 6.00001 11.296 6.01735 10.9543 6.05201C10.6127 6.08651 10.2726 6.14351 9.93409 6.22301C9.72125 6.26668 9.52959 6.23626 9.35909 6.13176C9.18859 6.02726 9.07134 5.87693 9.00734 5.68076C8.94317 5.47826 8.96434 5.28568 9.07084 5.10301C9.17717 4.92035 9.33159 4.80718 9.53409 4.76351C9.93675 4.66735 10.3435 4.59943 10.7543 4.55976C11.1653 4.51993 11.5804 4.50001 11.9996 4.50001C14.1483 4.50001 16.122 5.05835 17.9208 6.17501C19.7195 7.29168 21.1028 8.8026 22.0706 10.7078C22.1373 10.8346 22.1857 10.9624 22.2158 11.0913C22.246 11.2201 22.2611 11.3563 22.2611 11.5C22.2611 11.6437 22.2486 11.7799 22.2236 11.9088C22.1986 12.0376 22.1528 12.1654 22.0861 12.2923C21.7798 12.9333 21.4073 13.531 20.9688 14.0855C20.5303 14.64 20.0476 15.1493 19.5206 15.6135C19.3656 15.752 19.1884 15.8093 18.9891 15.7855C18.7896 15.7618 18.6258 15.6622 18.4976 15.4865C18.3694 15.3108 18.3163 15.1224 18.3381 14.9213C18.3599 14.7199 18.4483 14.55 18.6033 14.4115C19.0547 14.0025 19.4663 13.5554 19.8381 13.0703C20.2099 12.5849 20.5304 12.0615 20.7996 11.5C19.9663 9.81668 18.7621 8.47918 17.1871 7.48751C15.6121 6.49585 13.8829 6.00001 11.9996 6.00001ZM11.9996 18.5C9.89442 18.5 7.96492 17.9375 6.21109 16.8125C4.45725 15.6875 3.06309 14.2058 2.02859 12.3673C1.94525 12.2404 1.88434 12.1026 1.84584 11.9538C1.80734 11.8051 1.78809 11.6538 1.78809 11.5C1.78809 11.3462 1.80475 11.1974 1.83809 11.0538C1.87142 10.9103 1.92975 10.7699 2.01309 10.6328C2.38492 9.95326 2.80609 9.3061 3.27659 8.69126C3.74709 8.0766 4.28809 7.52568 4.89959 7.03851L2.64184 4.76526C2.5035 4.6166 2.43525 4.44001 2.43709 4.23551C2.43909 4.03101 2.5125 3.85635 2.65734 3.71151C2.80217 3.56668 2.97784 3.49426 3.18434 3.49426C3.39067 3.49426 3.56625 3.56668 3.71109 3.71151L20.2881 20.2885C20.4266 20.427 20.5 20.5984 20.5083 20.8028C20.5167 21.0073 20.4433 21.1871 20.2881 21.3423C20.1433 21.4871 19.9676 21.5595 19.7611 21.5595C19.5548 21.5595 19.3792 21.4871 19.2343 21.3423L15.7151 17.8538C15.1253 18.0819 14.5191 18.2467 13.8966 18.348C13.2743 18.4493 12.6419 18.5 11.9996 18.5ZM5.95359 8.09226C5.36759 8.54493 4.84092 9.05676 4.37359 9.62776C3.90625 10.1989 3.51492 10.823 3.19959 11.5C4.03292 13.1833 5.23709 14.5208 6.81209 15.5125C8.38709 16.5042 10.1163 17 11.9996 17C12.4291 17 12.8518 16.9712 13.2678 16.9135C13.6838 16.8558 14.097 16.7668 14.5073 16.6463L13.2418 15.35C13.0393 15.4385 12.8371 15.4984 12.6351 15.5298C12.4333 15.5613 12.2214 15.577 11.9996 15.577C10.8649 15.577 9.90175 15.1812 9.11009 14.3895C8.31842 13.5978 7.92259 12.6347 7.92259 11.5C7.92259 11.2782 7.93992 11.0663 7.97459 10.8645C8.00925 10.6625 8.06759 10.4603 8.14959 10.2578L5.95359 8.09226Z" fill="#C3C3C3"/>
</g>
</svg>
