<svg width="24" height="25" viewBox="0 0 24 25" fill="none" xmlns="http://www.w3.org/2000/svg">
<mask id="mask0_1_23396" style="mask-type:alpha" maskUnits="userSpaceOnUse" x="0" y="0" width="24" height="25">
<rect y="0.5" width="24" height="24" fill="#D9D9D9"/>
</mask>
<g mask="url(#mask0_1_23396)">
<path d="M12.0004 16.5C13.2504 16.5 14.3129 16.0625 15.1879 15.1875C16.0629 14.3125 16.5004 13.25 16.5004 12C16.5004 10.75 16.0629 9.6875 15.1879 8.8125C14.3129 7.9375 13.2504 7.5 12.0004 7.5C10.7504 7.5 9.68789 7.9375 8.81289 8.8125C7.93789 9.6875 7.50039 10.75 7.50039 12C7.50039 13.25 7.93789 14.3125 8.81289 15.1875C9.68789 16.0625 10.7504 16.5 12.0004 16.5ZM12.0004 14.7C11.2504 14.7 10.6129 14.4375 10.0879 13.9125C9.56289 13.3875 9.30039 12.75 9.30039 12C9.30039 11.25 9.56289 10.6125 10.0879 10.0875C10.6129 9.5625 11.2504 9.3 12.0004 9.3C12.7504 9.3 13.3879 9.5625 13.9129 10.0875C14.4379 10.6125 14.7004 11.25 14.7004 12C14.7004 12.75 14.4379 13.3875 13.9129 13.9125C13.3879 14.4375 12.7504 14.7 12.0004 14.7ZM12.0004 19.5C9.76706 19.5 7.72956 18.9 5.88789 17.7C4.04622 16.5 2.59206 14.9167 1.52539 12.95C1.44206 12.8 1.37956 12.6458 1.33789 12.4875C1.29622 12.3292 1.27539 12.1667 1.27539 12C1.27539 11.8333 1.29622 11.6708 1.33789 11.5125C1.37956 11.3542 1.44206 11.2 1.52539 11.05C2.59206 9.08333 4.04622 7.5 5.88789 6.3C7.72956 5.1 9.76706 4.5 12.0004 4.5C14.2337 4.5 16.2712 5.1 18.1129 6.3C19.9546 7.5 21.4087 9.08333 22.4754 11.05C22.5587 11.2 22.6212 11.3542 22.6629 11.5125C22.7046 11.6708 22.7254 11.8333 22.7254 12C22.7254 12.1667 22.7046 12.3292 22.6629 12.4875C22.6212 12.6458 22.5587 12.8 22.4754 12.95C21.4087 14.9167 19.9546 16.5 18.1129 17.7C16.2712 18.9 14.2337 19.5 12.0004 19.5ZM12.0004 17.5C13.8837 17.5 15.6129 17.0042 17.1879 16.0125C18.7629 15.0208 19.9671 13.6833 20.8004 12C19.9671 10.3167 18.7629 8.97917 17.1879 7.9875C15.6129 6.99583 13.8837 6.5 12.0004 6.5C10.1171 6.5 8.38789 6.99583 6.81289 7.9875C5.23789 8.97917 4.03372 10.3167 3.20039 12C4.03372 13.6833 5.23789 15.0208 6.81289 16.0125C8.38789 17.0042 10.1171 17.5 12.0004 17.5Z" fill="#C3C3C3"/>
</g>
</svg>
