<svg width="24" height="25" viewBox="0 0 24 25" fill="none" xmlns="http://www.w3.org/2000/svg">
<mask id="mask0_1894_25013" style="mask-type:alpha" maskUnits="userSpaceOnUse" x="0" y="0" width="24" height="25">
<rect y="0.5" width="24" height="24" fill="#D9D9D9"/>
</mask>
<g mask="url(#mask0_1894_25013)">
<path d="M10.0362 18.3461C10.8261 18.3461 11.4984 18.0694 12.0529 17.516C12.6073 16.9626 12.8846 16.2906 12.8846 15.5V8.42305H14.923C15.1679 8.42305 15.3766 8.33828 15.549 8.16873C15.7214 7.99918 15.8077 7.78908 15.8077 7.53845C15.8077 7.29357 15.7214 7.08491 15.549 6.91248C15.3766 6.74004 15.1679 6.65383 14.923 6.65383H12.5769C12.332 6.65383 12.1234 6.74004 11.951 6.91248C11.7785 7.08491 11.6923 7.29357 11.6923 7.53845V13.2077C11.4462 13.0359 11.1834 12.9006 10.9042 12.8019C10.6249 12.7032 10.3363 12.6538 10.0385 12.6538C9.24785 12.6538 8.57584 12.9303 8.02243 13.4833C7.46901 14.0363 7.1923 14.7078 7.1923 15.4977C7.1923 16.2877 7.46878 16.9599 8.02175 17.5144C8.57473 18.0689 9.24621 18.3461 10.0362 18.3461ZM12.0016 22C10.6877 22 9.45268 21.7506 8.29655 21.252C7.1404 20.7533 6.13472 20.0765 5.2795 19.2217C4.42427 18.3669 3.74721 17.3616 3.24833 16.206C2.74944 15.0504 2.5 13.8156 2.5 12.5017C2.5 11.1877 2.74933 9.95268 3.248 8.79655C3.74667 7.6404 4.42342 6.63472 5.27825 5.7795C6.1331 4.92427 7.13834 4.24721 8.29398 3.74833C9.44959 3.24944 10.6844 3 11.9983 3C13.3122 3 14.5473 3.24933 15.7034 3.748C16.8596 4.24667 17.8652 4.92342 18.7205 5.77825C19.5757 6.6331 20.2527 7.63834 20.7516 8.79398C21.2505 9.94959 21.5 11.1844 21.5 12.4983C21.5 13.8122 21.2506 15.0473 20.752 16.2034C20.2533 17.3596 19.5765 18.3652 18.7217 19.2205C17.8669 20.0757 16.8616 20.7527 15.706 21.2516C14.5504 21.7505 13.3156 22 12.0016 22Z" fill="#C3C3C3"/>
</g>
</svg>
