<svg width="24" height="24" viewBox="0 0 24 24" fill="none" xmlns="http://www.w3.org/2000/svg">
<path d="M4.35434 20.3621L4.17489 20.1816C3.51501 19.5346 3.50583 18.4803 4.1401 17.8143L5.41523 16.5011L5.76754 16.8432L4.49241 18.1564C4.03815 18.6114 4.04929 19.3689 4.5104 19.8105L4.68986 19.9909C5.14484 20.4452 5.9024 20.4341 6.34393 19.9729L9.01247 17.2312C9.65946 16.5713 10.7138 16.5622 11.3798 17.1964C12.0397 17.8434 12.0489 18.8978 11.4146 19.5638L7.74425 23.3116L7.41125 22.9944L11.0816 19.2466C11.5359 18.7917 11.5247 18.0341 11.0636 17.5926C10.6086 17.1383 9.85107 17.1494 9.40953 17.6106L6.74099 20.3523C6.07469 20.9872 5.02034 20.9964 4.35434 20.3621Z" fill="#C3C3C3"/>
<path d="M18.0544 7.72912L17.3688 8.33905L8.24148 16.2903L5.90954 14.0072L13.6342 4.70639L14.2298 3.99043L18.0544 7.72912Z" fill="#C3C3C3"/>
<path d="M18.165 7.62827L8.23992 16.2921L7.06759 15.1475L16.2432 5.76222L18.165 7.62827Z" fill="#C3C3C3"/>
<path d="M18.1648 7.62703L17.4665 8.23084C17.3713 8.20066 17.2757 8.13893 17.2051 8.05788L13.9061 4.8545C13.8293 4.78617 13.7775 4.69853 13.7319 4.59817L14.3275 3.88222L18.1648 7.62703Z" fill="#C3C3C3"/>
<path d="M18.2214 7.99869C18.7302 7.82072 19.2184 7.52309 19.61 7.1006C20.797 5.80767 20.78 3.79366 19.5743 2.52326C18.2531 1.13459 16.0747 1.13503 14.7496 2.48681C14.3703 2.88387 14.0993 3.3488 13.9423 3.83731C13.8579 4.11006 13.9318 4.41206 14.1494 4.61092L17.4422 7.82702C17.6471 8.01975 17.9514 8.10368 18.2214 7.99869Z" fill="#C3C3C3"/>
<path d="M7.84678 16.397L5.80968 14.4127C5.71359 14.3194 5.71786 14.1804 5.81116 14.0843L5.89834 14.001L8.26232 16.3152L8.17514 16.3985C8.08797 16.4819 7.94286 16.4903 7.84678 16.397Z" fill="#C3C3C3"/>
<path d="M7.94157 16.4906L7.78607 16.6507C7.77335 16.6446 7.76063 16.6385 7.74791 16.6324L5.56998 14.5175C5.55726 14.5114 5.55067 14.4925 5.55067 14.4925L5.70617 14.3324L7.94157 16.4906Z" fill="#C3C3C3"/>
<path d="M7.78395 16.65L7.63457 16.7974C7.03753 17.4186 6.04631 17.4269 5.43118 16.8171C4.80992 16.2201 4.80167 15.2289 5.41143 14.6137L5.56081 14.4663C5.57353 14.4724 5.5674 14.4852 5.58012 14.4913L7.75805 16.6061C7.75851 16.6377 7.77123 16.6438 7.78395 16.65Z" fill="#C3C3C3"/>
<mask id="mask0_2329_8481" style="mask-type:luminance" maskUnits="userSpaceOnUse" x="13" y="1" width="8" height="8">
<path d="M18.2224 7.99869C18.7312 7.82072 19.2194 7.52309 19.611 7.1006C20.798 5.80767 20.781 3.79366 19.5753 2.52326C18.2541 1.13459 16.0757 1.13503 14.7506 2.48681C14.3713 2.88387 14.1003 3.3488 13.9433 3.83731C13.8589 4.11006 13.9328 4.41206 14.1504 4.61092L17.4432 7.82702C17.6481 8.01975 17.9524 8.10368 18.2224 7.99869Z" fill="white"/>
</mask>
<g mask="url(#mask0_2329_8481)">
<path d="M16.2055 -2.54611L16.166 -2.56152L12.7747 6.11725L12.8142 6.13267L16.2055 -2.54611Z" fill="#C3C3C3"/>
<path d="M16.3871 -2.3674L16.3477 -2.38281L12.9564 6.29597L12.9958 6.31138L16.3871 -2.3674Z" fill="#C3C3C3"/>
<path d="M16.559 -2.20626L16.5195 -2.22168L13.1282 6.4571L13.1677 6.47251L16.559 -2.20626Z" fill="#C3C3C3"/>
<path d="M16.7406 -2.02755L16.7012 -2.04297L13.3099 6.63582L13.3493 6.65123L16.7406 -2.02755Z" fill="#C3C3C3"/>
<path d="M16.9125 -1.86349L16.873 -1.87891L13.4818 6.79987L13.5212 6.81529L16.9125 -1.86349Z" fill="#C3C3C3"/>
<path d="M17.0785 -1.68771L17.0391 -1.70312L13.6478 6.97565L13.6872 6.99107L17.0785 -1.68771Z" fill="#C3C3C3"/>
<path d="M17.2641 -1.52072L17.2246 -1.53613L13.8333 7.14264L13.8728 7.15806L17.2641 -1.52072Z" fill="#C3C3C3"/>
<path d="M17.4301 -1.34494L17.3906 -1.36035L13.9994 7.31844L14.0388 7.33385L17.4301 -1.34494Z" fill="#C3C3C3"/>
<path d="M17.6156 -1.17794L17.5762 -1.19336L14.1849 7.48542L14.2243 7.50084L17.6156 -1.17794Z" fill="#C3C3C3"/>
<path d="M17.7816 -1.00509L17.7422 -1.02051L14.3509 7.65827L14.3903 7.67369L17.7816 -1.00509Z" fill="#C3C3C3"/>
<path d="M17.9555 -0.84103L17.916 -0.856445L14.5247 7.82233L14.5642 7.83775L17.9555 -0.84103Z" fill="#C3C3C3"/>
<path d="M18.1352 -0.662319L18.0957 -0.677734L14.7044 8.00104L14.7439 8.01646L18.1352 -0.662319Z" fill="#C3C3C3"/>
<path d="M18.307 -0.501187L18.2676 -0.516602L14.8763 8.16218L14.9157 8.17759L18.307 -0.501187Z" fill="#C3C3C3"/>
<path d="M18.4848 -0.319546L18.4453 -0.334961L15.054 8.34382L15.0935 8.35923L18.4848 -0.319546Z" fill="#C3C3C3"/>
<path d="M18.6586 -0.158413L18.6191 -0.173828L15.2279 8.50496L15.2673 8.52037L18.6586 -0.158413Z" fill="#C3C3C3"/>
<path d="M18.8402 0.0202977L18.8008 0.00488281L15.4095 8.68366L15.4489 8.69908L18.8402 0.0202977Z" fill="#C3C3C3"/>
<path d="M19.0102 0.18436L18.9707 0.168945L15.5794 8.84773L15.6189 8.86315L19.0102 0.18436Z" fill="#C3C3C3"/>
<path d="M19.1801 0.357212L19.1406 0.341797L15.7493 9.02057L15.7888 9.03599L19.1801 0.357212Z" fill="#C3C3C3"/>
<path d="M19.3598 0.538852L19.3203 0.523438L15.929 9.20222L15.9685 9.21764L19.3598 0.538852Z" fill="#C3C3C3"/>
<path d="M19.5316 0.699985L19.4922 0.68457L16.1009 9.36335L16.1403 9.37876L19.5316 0.699985Z" fill="#C3C3C3"/>
<path d="M19.7113 0.881626L19.6719 0.866211L16.2806 9.54499L16.32 9.56041L19.7113 0.881626Z" fill="#C3C3C3"/>
<path d="M19.8832 1.04276L19.8438 1.02734L16.4525 9.70612L16.4919 9.72154L19.8832 1.04276Z" fill="#C3C3C3"/>
<path d="M20.0492 1.21854L20.0098 1.20312L16.6185 9.8819L16.6579 9.89732L20.0492 1.21854Z" fill="#C3C3C3"/>
<path d="M20.2348 1.38553L20.1953 1.37012L16.804 10.0489L16.8435 10.0643L20.2348 1.38553Z" fill="#C3C3C3"/>
<path d="M20.4047 1.55838L20.3652 1.54297L16.974 10.2218L17.0134 10.2372L20.4047 1.55838Z" fill="#C3C3C3"/>
<path d="M20.5902 1.72538L20.5508 1.70996L17.1595 10.3888L17.199 10.4042L20.5902 1.72538Z" fill="#C3C3C3"/>
<path d="M20.7562 1.90116L20.7168 1.88574L17.3255 10.5645L17.365 10.5799L20.7562 1.90116Z" fill="#C3C3C3"/>
<path d="M20.9418 2.06815L20.9023 2.05273L17.5111 10.7315L17.5505 10.7469L20.9418 2.06815Z" fill="#C3C3C3"/>
<path d="M21.1078 2.24393L21.0684 2.22852L17.6771 10.9073L17.7166 10.9227L21.1078 2.24393Z" fill="#C3C3C3"/>
<path d="M21.2816 2.40506L21.2422 2.38965L17.8509 11.0684L17.8904 11.0839L21.2816 2.40506Z" fill="#C3C3C3"/>
<path d="M21.4613 2.58377L21.4219 2.56836L18.0306 11.2471L18.07 11.2626L21.4613 2.58377Z" fill="#C3C3C3"/>
<path d="M21.6312 2.74784L21.5918 2.73242L18.2005 11.4112L18.24 11.4266L21.6312 2.74784Z" fill="#C3C3C3"/>
<path d="M21.8129 2.92655L21.7734 2.91113L18.3821 11.5899L18.4216 11.6053L21.8129 2.92655Z" fill="#C3C3C3"/>
<path d="M21.9848 3.08768L21.9453 3.07227L18.554 11.7511L18.5935 11.7665L21.9848 3.08768Z" fill="#C3C3C3"/>
<path d="M24.5469 3.39504L15.8672 0.0078125L15.8518 0.0472657L24.5315 3.4345L24.5469 3.39504Z" fill="#C3C3C3"/>
<path d="M24.3705 3.5644L15.6914 0.173828L15.676 0.213279L24.3551 3.60386L24.3705 3.5644Z" fill="#C3C3C3"/>
<path d="M24.2026 3.74897L15.5234 0.358398L15.508 0.397849L24.1871 3.78843L24.2026 3.74897Z" fill="#C3C3C3"/>
<path d="M24.0268 3.91597L15.3477 0.525391L15.3322 0.564841L24.0114 3.95542L24.0268 3.91597Z" fill="#C3C3C3"/>
<path d="M23.8633 4.10208L15.1836 0.714844L15.1682 0.754297L23.8479 4.14153L23.8633 4.10208Z" fill="#C3C3C3"/>
<path d="M23.6869 4.26753L15.0078 0.876953L14.9924 0.916404L23.6715 4.30698L23.6869 4.26753Z" fill="#C3C3C3"/>
<path d="M23.5274 4.44094L14.8477 1.05371L14.8323 1.09316L23.512 4.4804L23.5274 4.44094Z" fill="#C3C3C3"/>
<path d="M23.3457 4.61965L14.666 1.23242L14.6506 1.27188L23.3303 4.65911L23.3457 4.61965Z" fill="#C3C3C3"/>
<path d="M23.1812 4.78768L14.502 1.39746L14.4865 1.43691L23.1658 4.82713L23.1812 4.78768Z" fill="#C3C3C3"/>
<path d="M23.0041 4.96597L14.3242 1.5791L14.3088 1.61856L22.9887 5.00543L23.0041 4.96597Z" fill="#C3C3C3"/>
<path d="M22.8399 5.14407L14.1602 1.75684L14.1448 1.79629L22.8245 5.18352L22.8399 5.14407Z" fill="#C3C3C3"/>
<path d="M22.6635 5.31343L13.9844 1.92285L13.969 1.9623L22.6481 5.35288L22.6635 5.31343Z" fill="#C3C3C3"/>
<path d="M22.4858 5.49214L13.8066 2.10156L13.7912 2.14101L22.4704 5.53159L22.4858 5.49214Z" fill="#C3C3C3"/>
<path d="M22.3241 5.66396L13.6445 2.27637L13.6291 2.31582L22.3087 5.70341L22.3241 5.66396Z" fill="#C3C3C3"/>
<path d="M22.1487 5.84894L13.4697 2.45801L13.4543 2.49746L22.1333 5.88839L22.1487 5.84894Z" fill="#C3C3C3"/>
<path d="M21.9819 6.01655L13.3027 2.62598L13.2873 2.66543L21.9664 6.056L21.9819 6.01655Z" fill="#C3C3C3"/>
<path d="M21.8047 6.19583L13.125 2.80859L13.1096 2.84805L21.7893 6.23528L21.8047 6.19583Z" fill="#C3C3C3"/>
<path d="M21.6381 6.37105L12.959 2.98047L12.9436 3.01992L21.6227 6.4105L21.6381 6.37105Z" fill="#C3C3C3"/>
<path d="M21.4668 6.53665L12.7871 3.14941L12.7717 3.18887L21.4514 6.5761L21.4668 6.53665Z" fill="#C3C3C3"/>
<path d="M21.2969 6.72122L12.6172 3.33398L12.6018 3.37344L21.2815 6.76067L21.2969 6.72122Z" fill="#C3C3C3"/>
<path d="M21.1225 6.8896L12.4434 3.49902L12.4279 3.53847L21.1071 6.92905L21.1225 6.8896Z" fill="#C3C3C3"/>
<path d="M20.9527 7.07102L12.2734 3.68066L12.258 3.72012L20.9373 7.11047L20.9527 7.07102Z" fill="#C3C3C3"/>
<path d="M20.7813 7.2427L12.1016 3.85547L12.0862 3.89492L20.7659 7.28215L20.7813 7.2427Z" fill="#C3C3C3"/>
<path d="M20.6192 7.41165L11.9395 4.02441L11.9241 4.06387L20.6038 7.4511L20.6192 7.41165Z" fill="#C3C3C3"/>
<path d="M20.4389 7.59565L11.7598 4.20508L11.7444 4.24453L20.4235 7.63511L20.4389 7.59565Z" fill="#C3C3C3"/>
<path d="M20.2774 7.76711L11.5977 4.37988L11.5823 4.41934L20.262 7.80657L20.2774 7.76711Z" fill="#C3C3C3"/>
<path d="M20.0992 7.94296L11.4199 4.55273L11.4045 4.59219L20.0838 7.98241L20.0992 7.94296Z" fill="#C3C3C3"/>
<path d="M19.9396 8.11247L11.2598 4.72559L11.2444 4.76504L19.9242 8.15192L19.9396 8.11247Z" fill="#C3C3C3"/>
<path d="M19.7579 8.29228L11.0781 4.90527L11.0627 4.94473L19.7425 8.33173L19.7579 8.29228Z" fill="#C3C3C3"/>
<path d="M19.5938 8.46926L10.9141 5.08203L10.8987 5.12148L19.5784 8.50872L19.5938 8.46926Z" fill="#C3C3C3"/>
<path d="M19.4194 8.63862L10.7402 5.24805L10.7248 5.2875L19.4039 8.67807L19.4194 8.63862Z" fill="#C3C3C3"/>
<path d="M19.2518 8.82215L10.5723 5.43457L10.5569 5.47402L19.2364 8.86161L19.2518 8.82215Z" fill="#C3C3C3"/>
<path d="M19.0822 8.98661L10.4023 5.59961L10.3869 5.63906L19.0668 9.02607L19.0822 8.98661Z" fill="#C3C3C3"/>
<path d="M18.9096 9.17476L10.2305 5.78418L10.2151 5.82363L18.8942 9.21421L18.9096 9.17476Z" fill="#C3C3C3"/>
</g>
<path opacity="0.5" d="M19.6094 7.1016C19.2117 7.53682 18.7363 7.84057 18.2208 7.99969C17.9443 8.08584 17.6466 8.02076 17.4351 7.80918L15.6928 6.12361C15.8916 6.32906 16.202 6.40027 16.4786 6.31412C16.9874 6.13616 17.4756 5.83853 17.8672 5.41603C18.7931 4.40477 18.9928 2.94955 18.4512 1.7641C18.8644 1.94746 19.2469 2.19441 19.5803 2.54311C20.7922 3.80079 20.8092 5.8148 19.6094 7.1016Z" fill="#C3C3C3"/>
</svg>
