<svg width="24" height="24" viewBox="0 0 24 24" fill="none" xmlns="http://www.w3.org/2000/svg">
<path d="M9.38163 4.26562V17.4176H8.49023V4.34382L9.38163 4.26562Z" fill="#D0BE66"/>
<path d="M19.4998 3.2666V15.9807H18.624V3.34479L19.4998 3.2666Z" fill="#D0BE66"/>
<path d="M19.4997 3.2666V5.47162L18.624 5.56545L9.38163 6.47248L8.49023 6.56632V4.34565L9.38163 4.26746L18.624 3.34479L19.4997 3.2666Z" fill="#FFEE99"/>
<path d="M5.44089 20.7362C7.61739 20.7362 9.38178 19.2449 9.38178 17.4052C9.38178 15.5656 7.61739 14.0742 5.44089 14.0742C3.2644 14.0742 1.5 15.5656 1.5 17.4052C1.5 19.2449 3.2644 20.7362 5.44089 20.7362Z" fill="#FFEE99"/>
<path d="M15.56 19.453C17.7365 19.453 19.5009 17.9617 19.5009 16.122C19.5009 14.2824 17.7365 12.791 15.56 12.791C13.3835 12.791 11.6191 14.2824 11.6191 16.122C11.6191 17.9617 13.3835 19.453 15.56 19.453Z" fill="#FFEE99"/>
</svg>
