<svg width="18" height="18" viewBox="0 0 18 18" fill="none" xmlns="http://www.w3.org/2000/svg">
<path d="M9.99967 17.5189V15.615H11.9035V17.5189H9.99967ZM8.09582 15.615V10.9035H9.99967V15.615H8.09582ZM15.615 12.4227V8.99967H17.5189V12.4227H15.615ZM13.7112 8.99967V7.09582H15.615V8.99967H13.7112ZM2.38432 10.9035V8.99967H4.28814V10.9035H2.38432ZM0.480469 8.99967V7.09582H2.38432V8.99967H0.480469ZM8.99967 2.38432V0.480469H10.9035V2.38432H8.99967ZM1.67277 4.99969H4.99969V1.67277H1.67277V4.99969ZM1.38432 6.19199C1.12822 6.19199 0.913552 6.10538 0.740319 5.93214C0.567086 5.75891 0.480469 5.54424 0.480469 5.28814V1.38432C0.480469 1.12824 0.567086 0.913568 0.740319 0.740318C0.913552 0.567085 1.12822 0.480469 1.38432 0.480469H5.28814C5.54424 0.480469 5.75891 0.567085 5.93214 0.740318C6.10538 0.913568 6.19199 1.12824 6.19199 1.38432V5.28814C6.19199 5.54424 6.10538 5.75891 5.93214 5.93214C5.75891 6.10538 5.54424 6.19199 5.28814 6.19199H1.38432ZM1.67277 16.3266H5.07664V12.9996H1.67277V16.3266ZM1.38432 17.5189C1.12822 17.5189 0.913552 17.4323 0.740319 17.259C0.567086 17.0858 0.480469 16.8711 0.480469 16.615V12.7112C0.480469 12.4551 0.567086 12.2404 0.740319 12.0672C0.913552 11.894 1.12822 11.8073 1.38432 11.8073H5.36507C5.62117 11.8073 5.83584 11.894 6.00907 12.0672C6.1823 12.2404 6.26892 12.4551 6.26892 12.7112V16.615C6.26892 16.8711 6.1823 17.0858 6.00907 17.259C5.83584 17.4323 5.62117 17.5189 5.36507 17.5189H1.38432ZM12.9996 4.99969H16.3266V1.67277H12.9996V4.99969ZM12.7112 6.19199C12.4551 6.19199 12.2404 6.10538 12.0672 5.93214C11.894 5.75891 11.8073 5.54424 11.8073 5.28814V1.38432C11.8073 1.12824 11.894 0.913568 12.0672 0.740318C12.2404 0.567085 12.4551 0.480469 12.7112 0.480469H16.615C16.8711 0.480469 17.0858 0.567085 17.259 0.740318C17.4323 0.913568 17.5189 1.12824 17.5189 1.38432V5.28814C17.5189 5.54424 17.4323 5.75891 17.259 5.93214C17.0858 6.10538 16.8711 6.19199 16.615 6.19199H12.7112ZM13.7112 17.5189V14.3265H11.8073V12.4227H15.615V15.615H17.5189V17.5189H13.7112ZM9.99967 10.9035V8.99967H13.7112V10.9035H9.99967ZM6.19199 10.9035V8.99967H4.28814V7.09582H9.99967V8.99967H8.09582V10.9035H6.19199ZM7.09582 6.19199V2.38432H8.99967V4.28814H10.9035V6.19199H7.09582ZM2.64392 4.02854V2.64392H4.02854V4.02854H2.64392ZM2.71124 15.2881V13.9035H4.09584V15.2881H2.71124ZM13.9708 4.02854V2.64392H15.3554V4.02854H13.9708Z" fill="#C3C3C3"/>
</svg>
