<svg width="48" height="39" viewBox="0 0 48 39" fill="none" xmlns="http://www.w3.org/2000/svg">
<path d="M7.19922 21.2998C8.39922 21.6998 9.99922 22.0998 11.9992 22.4998V28.0998C11.9992 29.2998 10.9992 30.4998 9.59922 30.4998C8.19922 30.4998 7.19922 29.4998 7.19922 28.0998V21.2998Z" fill="currentColor"/>
<path d="M14.4004 22.8999C15.8004 23.0999 17.4004 23.2999 19.2004 23.4999V31.6999C19.2004 33.0999 18.2004 34.0999 16.8004 34.0999C15.4004 34.0999 14.4004 33.0999 14.4004 31.6999V22.8999Z" fill="currentColor"/>
<path d="M23.9996 23.7002C24.7996 23.7002 25.5996 23.7002 26.3996 23.7002V36.5002C26.3996 37.9002 25.3996 38.9002 23.9996 38.9002C22.5996 38.9002 21.5996 37.9002 21.5996 36.5002V23.7002C22.3996 23.7002 23.1996 23.7002 23.9996 23.7002Z" fill="currentColor"/>
<path d="M28.8008 23.4999C30.6008 23.2999 32.2008 23.0999 33.6008 22.8999V31.6999C33.6008 33.0999 32.6008 34.0999 31.2008 34.0999C29.8008 34.0999 28.8008 33.0999 28.8008 31.6999V23.4999Z" fill="currentColor"/>
<path d="M36 22.4998C38 22.0998 39.6 21.6998 40.8 21.2998V27.8998C40.8 29.2998 39.8 30.2998 38.4 30.2998C37 30.2998 36 29.2998 36 27.8998V22.4998Z" fill="currentColor"/>
<path d="M46.2 15.8998C45 14.8998 43.6 14.0998 41.8 13.4998V18.4998C42 18.4998 42.2 18.6998 42.6 18.8998C42.6 18.8998 42.8 18.8998 42.8 19.0998C43.2 19.2998 43.2 19.6998 43.2 19.8998C43.2 20.0998 43 20.2998 42.8 20.4998C42.2 20.8998 41.6 21.0998 40.8 21.4998C39.6 21.6998 38 22.0998 36 22.4998C35.2 22.6998 34.4 22.8998 33.6 22.8998C32.2 23.0998 30.6 23.2998 28.8 23.4998C28 23.4998 27.2 23.4998 26.4 23.6998C25.6 23.6998 24.8 23.6998 24 23.6998C23.2 23.6998 22.4 23.6998 21.6 23.6998C20.8 23.6998 20 23.6998 19.2 23.4998C17.4 23.2998 15.8 23.0998 14.4 22.8998C13.6 22.8998 12.8 22.6998 12 22.4998C10 22.0998 8.4 21.6998 7.2 21.2998C6.4 20.8998 5.6 20.6998 5.2 20.2998C4.6 20.0998 4.6 19.2998 5.2 18.8998C5.2 18.8998 5.4 18.8998 5.4 18.6998C5.6 18.6998 6 18.4998 6.4 18.2998V13.2998C4.4 14.0998 2.8 14.8998 1.8 15.8998C0.6 16.8998 0 18.0998 0 19.6998C0 22.8998 3 24.8998 7.2 26.2998C8.6 26.8998 10.2 27.0998 12 27.4998C12.8 27.6998 13.6 27.6998 14.4 27.8998C16 28.0998 17.6 28.2998 19.2 28.2998C20 28.2998 20.8 28.4998 21.6 28.4998C22.4 28.4998 23.2 28.4998 24 28.4998C24.8 28.4998 25.6 28.4998 26.4 28.4998C27.2 28.4998 28 28.4998 28.8 28.2998C30.4 28.2998 32 28.0998 33.6 27.8998C34.4 27.8998 35.2 27.6998 36 27.4998C37.6 27.2998 39.4 26.8998 40.8 26.2998C45 24.8998 48 22.8998 48 19.6998C48 18.0998 47.2 16.8998 46.2 15.8998Z" fill="currentColor"/>
<path d="M11.9992 11.2999V20.6999C10.1992 20.4999 8.59922 20.0999 7.19922 19.4999V11.2999C7.19922 9.8999 8.19922 8.8999 9.59922 8.8999C10.9992 8.8999 11.9992 10.0999 11.9992 11.2999Z" fill="currentColor"/>
<path d="M19.2004 7.6998V21.6998C17.6004 21.4998 16.0004 21.4998 14.4004 21.0998V7.6998C14.4004 6.2998 15.4004 5.2998 16.8004 5.2998C18.2004 5.2998 19.2004 6.2998 19.2004 7.6998Z" fill="currentColor"/>
<path d="M23.9996 0.5C25.3996 0.5 26.3996 1.5 26.3996 2.9V21.9C25.5996 21.9 24.7996 21.9 23.9996 21.9C23.1996 21.9 22.3996 21.9 21.5996 21.9V2.9C21.5996 1.5 22.5996 0.5 23.9996 0.5Z" fill="currentColor"/>
<path d="M33.6008 7.70009V21.3001C32.0008 21.5001 30.4008 21.7001 28.8008 21.9001V7.90009C28.8008 6.50009 29.8008 5.50009 31.2008 5.50009C32.6008 5.30009 33.6008 6.30009 33.6008 7.70009Z" fill="currentColor"/>
<path d="M40.8 11.5001V19.5001C39.4 20.1001 37.8 20.5001 36 20.9001V11.5001C36 10.1001 37 9.1001 38.4 9.1001C39.8 9.1001 40.8 10.1001 40.8 11.5001Z" fill="currentColor"/>
</svg>
